<svg width="24" height="24" viewBox="0 0 24 24" fill="none" xmlns="http://www.w3.org/2000/svg">
<g id="fluent:ios-arrow-24-filled">
<path id="Vector" d="M12.727 3.687C12.8172 3.59153 12.8878 3.47923 12.9346 3.3565C12.9814 3.23377 13.0036 3.10302 12.9999 2.97172C12.9962 2.84042 12.9666 2.71113 12.9129 2.59125C12.8593 2.47136 12.7825 2.36322 12.687 2.273C12.5916 2.18279 12.4793 2.11226 12.3565 2.06544C12.2338 2.01863 12.103 1.99644 11.9717 2.00016C11.8404 2.00387 11.7112 2.03341 11.5913 2.08709C11.4714 2.14077 11.3632 2.21753 11.273 2.313L2.77303 11.313C2.59749 11.4987 2.49968 11.7445 2.49968 12C2.49968 12.2555 2.59749 12.5013 2.77303 12.687L11.273 21.688C11.3627 21.7856 11.4708 21.8643 11.5911 21.9198C11.7114 21.9752 11.8416 22.0062 11.974 22.0109C12.1063 22.0156 12.2384 21.9939 12.3623 21.9472C12.4863 21.9004 12.5997 21.8295 12.696 21.7386C12.7923 21.6476 12.8696 21.5384 12.9234 21.4173C12.9772 21.2963 13.0063 21.1657 13.0092 21.0333C13.0121 20.9008 12.9886 20.7691 12.9402 20.6458C12.8918 20.5225 12.8193 20.4101 12.727 20.315L4.87503 12L12.727 3.687Z" fill="white"/>
</g>
</svg>
