<svg width="48" height="48" viewBox="0 0 48 48" fill="none" xmlns="http://www.w3.org/2000/svg">
<g id="ion:call-sharp">
<path id="Vector" d="M44.9006 34.7006C44.4112 34.1794 42.6834 32.6381 39.5072 30.5991C36.3075 28.5422 33.9478 27.2597 33.2709 26.9606C33.2113 26.9342 33.1455 26.9245 33.0808 26.9326C33.016 26.9407 32.9547 26.9662 32.9034 27.0066C31.8131 27.8569 29.9775 29.4188 29.8791 29.5031C29.2434 30.0478 29.2434 30.0478 28.7231 29.8781C27.8081 29.5781 24.9656 28.0688 22.4887 25.5863C20.0119 23.1038 18.4247 20.1909 18.1247 19.2769C17.9531 18.7556 17.9531 18.7556 18.4997 18.12C18.5841 18.0216 20.1469 16.1859 20.9972 15.0966C21.0375 15.0453 21.0631 14.9839 21.0712 14.9192C21.0793 14.8544 21.0696 14.7887 21.0431 14.7291C20.7441 14.0513 19.4616 11.6925 17.4047 8.49282C15.3628 5.3175 13.8234 3.58969 13.3022 3.10032C13.2543 3.05518 13.1952 3.02378 13.131 3.00943C13.0669 2.99507 13 2.99829 12.9375 3.01876C11.1154 3.6449 9.35743 4.44385 7.68749 5.40469C6.07539 6.34184 4.54915 7.41946 3.12655 8.62501C3.07689 8.66722 3.03966 8.72216 3.01885 8.78393C2.99804 8.8457 2.99444 8.91197 3.00843 8.97563C3.20437 9.88875 4.14093 13.7006 7.04718 18.9806C10.0125 24.3694 12.0675 27.1303 16.4222 31.47C20.7769 35.8097 23.625 37.9884 29.0194 40.9538C34.2994 43.86 38.1131 44.7975 39.0244 44.9916C39.0882 45.0054 39.1545 45.0018 39.2164 44.981C39.2783 44.9602 39.3334 44.923 39.3759 44.8734C40.5813 43.4509 41.6586 41.9246 42.5953 40.3125C43.556 38.6425 44.3549 36.8845 44.9812 35.0625C45.0013 35.0005 45.0044 34.9342 44.9902 34.8706C44.976 34.807 44.9451 34.7483 44.9006 34.7006Z" fill="white"/>
</g>
</svg>
