<svg width="42" height="42" viewBox="0 0 42 42" fill="none" xmlns="http://www.w3.org/2000/svg">
<g id="tabler:mail-filled" clip-path="url(#clip0_1_43)">
<g id="Group">
<path id="Vector" d="M38.5 13.1863V29.75C38.5001 31.0891 37.9884 32.3777 37.0698 33.352C36.1511 34.3263 34.8948 34.9127 33.558 34.9913L33.25 35H8.75C7.41088 35.0001 6.12235 34.4885 5.14804 33.5698C4.17374 32.6511 3.58731 31.3948 3.50875 30.058L3.5 29.75V13.1863L20.0287 24.206L20.2318 24.3215C20.471 24.4384 20.7337 24.4992 21 24.4992C21.2663 24.4992 21.529 24.4384 21.7682 24.3215L21.9713 24.206L38.5 13.1863Z" fill="white"/>
<path id="Vector_2" d="M33.25 7C35.14 7 36.7972 7.9975 37.7212 9.49725L21 20.6447L4.27875 9.49725C4.71753 8.78459 5.32037 8.1872 6.03699 7.75492C6.7536 7.32264 7.5632 7.068 8.39825 7.01225L8.75 7H33.25Z" fill="white"/>
</g>
</g>
<defs>
<clipPath id="clip0_1_43">
<rect width="42" height="42" fill="white"/>
</clipPath>
</defs>
</svg>
