<svg width="42" height="42" viewBox="0 0 42 42" fill="none" xmlns="http://www.w3.org/2000/svg">
<g id="ph:line-segments-fill">
<path id="Vector" d="M39.1519 12.8986C38.6648 13.3873 38.0858 13.7748 37.4484 14.0389C36.8109 14.3031 36.1275 14.4385 35.4375 14.4375C35.0152 14.4373 34.5944 14.3866 34.1841 14.2866L29.8151 22.4011C29.8643 22.447 29.9135 22.493 29.9611 22.5405C30.6553 23.2349 31.1408 24.11 31.3626 25.0664C31.5844 26.0229 31.5336 27.0224 31.2158 27.9514C30.8981 28.8804 30.3262 29.7017 29.5651 30.322C28.804 30.9423 27.8843 31.3367 26.9103 31.4605C25.9363 31.5843 24.9471 31.4325 24.055 31.0223C23.1629 30.6121 22.4038 29.96 21.8638 29.14C21.3238 28.32 21.0245 27.365 21 26.3835C20.9755 25.4019 21.2267 24.4332 21.7252 23.5873L18.4144 20.2765C17.6067 20.751 16.6868 21.0008 15.75 21C15.3272 21.0003 14.9059 20.9502 14.4949 20.8507L10.1259 28.9619C10.1752 29.0079 10.226 29.0538 10.2736 29.1014C11.0077 29.8357 11.5076 30.7711 11.7101 31.7895C11.9125 32.8079 11.8085 33.8634 11.4111 34.8226C11.0137 35.7819 10.3408 36.6018 9.47747 37.1786C8.61414 37.7554 7.59916 38.0633 6.56085 38.0633C5.52255 38.0633 4.50757 37.7554 3.64424 37.1786C2.7809 36.6018 2.108 35.7819 1.7106 34.8226C1.31321 33.8634 1.20917 32.8079 1.41164 31.7895C1.61412 30.7711 2.11401 29.8357 2.84812 29.1014C3.48689 28.4629 4.27957 28 5.14953 27.7575C6.01949 27.5149 6.93732 27.5009 7.81429 27.7167L12.1833 19.6022C12.1341 19.5562 12.0848 19.5103 12.0373 19.4627C11.5496 18.9752 11.1628 18.3964 10.8989 17.7594C10.635 17.1223 10.4991 16.4395 10.4991 15.75C10.4991 15.0604 10.635 14.3777 10.8989 13.7406C11.1628 13.1036 11.5496 12.5248 12.0373 12.0373C12.9405 11.1315 14.1433 10.5866 15.4199 10.505C16.6964 10.4234 17.9588 10.8107 18.97 11.594C19.9812 12.3774 20.6717 13.503 20.9116 14.7595C21.1516 16.0159 20.9245 17.3168 20.2732 18.4176L23.584 21.7284C24.7669 21.0353 26.1731 20.8294 27.5051 21.1542L31.8741 13.0397C31.8248 12.9937 31.774 12.9478 31.7264 12.9002C31.2388 12.4127 30.8519 11.8339 30.588 11.1969C30.3241 10.5598 30.1883 9.87703 30.1883 9.18749C30.1883 8.49795 30.3241 7.81516 30.588 7.17812C30.8519 6.54109 31.2388 5.96228 31.7264 5.47475C32.7111 4.49008 34.0466 3.93689 35.4391 3.93689C36.8317 3.93689 38.1672 4.49008 39.1519 5.47475C40.1365 6.45943 40.6897 7.79494 40.6897 9.18749C40.6897 10.58 40.1365 11.9155 39.1519 12.9002V12.8986Z" fill="white"/>
</g>
</svg>
