<svg width="24" height="25" viewBox="0 0 24 25" fill="none" xmlns="http://www.w3.org/2000/svg">
<g id="logos:whatsapp-icon" clip-path="url(#clip0_1_6172)">
<path id="Vector" d="M0.512151 11.949C0.511588 13.9812 1.04259 15.9655 2.05228 17.7145L0.415588 23.6904L6.53109 22.0869C8.22255 23.0077 10.1177 23.4902 12.0436 23.4903H12.0487C18.4063 23.4903 23.5816 18.3169 23.5843 11.9581C23.5855 8.87683 22.3867 5.97939 20.2085 3.79951C18.0307 1.61983 15.1342 0.418795 12.0482 0.417389C5.68978 0.417389 0.51487 5.59051 0.512245 11.949" fill="url(#paint0_linear_1_6172)"/>
<path id="Vector_2" d="M0.100313 11.9452C0.0996563 14.0506 0.649687 16.1059 1.69537 17.9175L0 24.1075L6.33478 22.4466C8.08022 23.3982 10.0454 23.9 12.0451 23.9007H12.0502C18.636 23.9007 23.9972 18.5412 24 11.9548C24.0011 8.76281 22.7591 5.76122 20.5031 3.50325C18.2468 1.24556 15.2468 0.0013125 12.0502 0C5.46337 0 0.102938 5.35875 0.100313 11.9452ZM3.87281 17.6055L3.63628 17.23C2.64197 15.649 2.11716 13.822 2.11791 11.946C2.12006 6.47147 6.57544 2.0175 12.054 2.0175C14.7071 2.01863 17.2005 3.05288 19.0759 4.92938C20.9512 6.80606 21.9831 9.30075 21.9824 11.9541C21.98 17.4286 17.5245 21.8831 12.0502 21.8831H12.0463C10.2638 21.8822 8.51569 21.4035 6.99113 20.4989L6.62831 20.2838L2.86912 21.2693L3.87281 17.6054V17.6055Z" fill="url(#paint1_linear_1_6172)"/>
<path id="Vector_3" d="M9.06358 6.95138C8.8399 6.45423 8.60449 6.44419 8.39177 6.43547C8.21758 6.42797 8.01846 6.42854 7.81952 6.42854C7.6204 6.42854 7.29687 6.50344 7.0234 6.80204C6.74965 7.10091 5.97827 7.82316 5.97827 9.29213C5.97827 10.7612 7.04824 12.1809 7.1974 12.3803C7.34674 12.5793 9.26299 15.6903 12.2979 16.8871C14.8201 17.8817 15.3334 17.6839 15.8808 17.634C16.4283 17.5843 17.6474 16.9119 17.8961 16.2147C18.1451 15.5176 18.1451 14.92 18.0704 14.7952C17.9958 14.6708 17.7967 14.596 17.4981 14.4468C17.1994 14.2974 15.7315 13.5751 15.4578 13.4754C15.1841 13.3759 14.985 13.3262 14.7859 13.6252C14.5868 13.9237 14.015 14.596 13.8407 14.7952C13.6666 14.9948 13.4923 15.0196 13.1938 14.8703C12.8951 14.7204 11.9335 14.4055 10.7926 13.3884C9.90499 12.597 9.30574 11.6197 9.13155 11.3207C8.95737 11.0222 9.1129 10.8604 9.26262 10.7116C9.39677 10.5778 9.5613 10.3629 9.71074 10.1887C9.85962 10.0143 9.9093 9.88988 10.0089 9.69076C10.1085 9.49144 10.0586 9.31707 9.98412 9.16773C9.9093 9.01838 9.32908 7.54173 9.06358 6.95138Z" fill="white"/>
</g>
<defs>
<linearGradient id="paint0_linear_1_6172" x1="1158.85" y1="2327.71" x2="1158.85" y2="0.417389" gradientUnits="userSpaceOnUse">
<stop stop-color="#1FAF38"/>
<stop offset="1" stop-color="#60D669"/>
</linearGradient>
<linearGradient id="paint1_linear_1_6172" x1="1200" y1="2410.75" x2="1200" y2="0" gradientUnits="userSpaceOnUse">
<stop stop-color="#F9F9F9"/>
<stop offset="1" stop-color="white"/>
</linearGradient>
<clipPath id="clip0_1_6172">
<rect width="24" height="24.1875" fill="white"/>
</clipPath>
</defs>
</svg>
